<svg xmlns="http://www.w3.org/2000/svg" width="236.469" height="80.16" viewBox="0 0 236.469 80.16">
  <g id="Nethues_Logo_Black" data-name="Nethues Logo Black" transform="translate(-13.17 -7.319)">
    <path id="Path_95940" data-name="Path 95940" d="M71.862,14.6C28.655,24.1,8.714,52.991,14,63.979c3.595,7.393,14.38,9.292,35.474-4.951C-2.071,68.116,30.622,28.5,71.862,14.6" transform="translate(0 -2.342)" fill="#84c554" fill-rule="evenodd"/>
    <path id="Path_95941" data-name="Path 95941" d="M86.957,35.183c-22.79-4.138-33.711-18.856-31.133-24.689,1.764-3.934,7.325-5.155,18.653,1.9-27.131-3.8-9.36,16.347,12.48,22.79" transform="translate(-13.604)" fill="#0c80c4" fill-rule="evenodd"/>
    <path id="Path_95942" data-name="Path 95942" d="M50.946,48.2C32.9,42.976,25.172,30.224,27.681,25.679c1.7-3.052,6.308-3.527,14.854,3.052-21.5-5.223-8.682,12.413,8.411,19.467" transform="translate(-4.52 -5.215)" fill="#f68631" fill-rule="evenodd"/>
    <path id="Path_95943" data-name="Path 95943" d="M267.086,50.282l-1.153,6.24A2.731,2.731,0,0,0,264.44,55.3a11.646,11.646,0,0,0-2.781-.271h-8.072a4,4,0,0,0-1.357.136,1.578,1.578,0,0,0-.746.95c-.136.475-.136.814,0,.95a2.119,2.119,0,0,0,1.221.2h7.461c4-.271,5.155,2.035,3.459,6.851l-1.153,3.527a11.864,11.864,0,0,1-4.07,5.9,8.8,8.8,0,0,1-2.374,1.221,12.586,12.586,0,0,1-3.12.271H236.292l1.289-6.308a9.423,9.423,0,0,0,2.1,1.424,8.885,8.885,0,0,0,2.781.271h8.275a2.927,2.927,0,0,0,1.492-.271,2.336,2.336,0,0,0,.746-1.085c.2-.543.2-.882.068-1.085s-.543-.271-1.153-.271h-8.411a4.69,4.69,0,0,1-2.238-.407,2.308,2.308,0,0,1-1.017-1.424c-.339-1.017-.2-2.577.475-4.68l1.357-3.934a11.712,11.712,0,0,1,2.917-4.68,7.475,7.475,0,0,1,2.917-1.764,14.459,14.459,0,0,1,4.341-.475l14.854-.068ZM228.695,60.388l.882-2.645a5.463,5.463,0,0,0,.475-2.238c-.136-.339-.543-.475-1.289-.475h-3.052a3.36,3.36,0,0,0-1.017.068,1.7,1.7,0,0,0-.543.339,7.988,7.988,0,0,0-1.221,2.374l-.882,2.645,6.647-.068Zm7.8,4.68H220.488l-.678,2.035a4.058,4.058,0,0,0-.339,2.645c.2.407.95.61,2.171.61h8.614a8.447,8.447,0,0,0,4.544-1.153l-2.645,5.833h-17.3A12.108,12.108,0,0,1,211.6,74.7a2.789,2.789,0,0,1-1.56-1.357c-.678-1.357-.543-3.527.407-6.579l2.713-8c1.9-5.765,5.087-8.546,9.5-8.343H234.6a9.39,9.39,0,0,1,3.324.407,2.4,2.4,0,0,1,1.424,1.492,4.956,4.956,0,0,1,.271,2.51,22.222,22.222,0,0,1-.95,3.866ZM212.348,50.282l-6.24,18.449c-.61,1.9-1.017,3.188-1.221,3.934a6.241,6.241,0,0,0-.136,2.238H195.8l.407-2.306a5.83,5.83,0,0,1-1.831,1.831,5.168,5.168,0,0,1-2.51.475h-7.325a7.281,7.281,0,0,1-2.781-.407,2.918,2.918,0,0,1-1.424-1.289,3.93,3.93,0,0,1-.339-2.374,33.907,33.907,0,0,1,1.221-4.477l3.391-9.971c.61-1.9,1.017-3.188,1.221-3.934a8.29,8.29,0,0,0,.136-2.238h10.242l-5.7,16.754c-.882,2.306-.543,3.391.95,3.256h2.306a3.113,3.113,0,0,0,2.1-.61,6.51,6.51,0,0,0,1.289-2.442l3.663-10.785c.678-1.9,1.017-3.188,1.221-3.934a8.29,8.29,0,0,0,.136-2.238l10.174.068Zm-43-8.682-3.459,10.174a3.54,3.54,0,0,1,2.849-1.492H176.2a6.029,6.029,0,0,1,2.781.475,2.946,2.946,0,0,1,1.424,1.56c.543,1.357.407,3.188-.339,5.494L176.332,68.8c-.61,1.9-1.017,3.188-1.221,3.934a8.291,8.291,0,0,0-.136,2.238H163.919a10.275,10.275,0,0,0,1.424-2.238c.339-.746.814-2.035,1.492-3.934l3.663-10.92c.746-1.9.339-2.849-1.153-2.917h-2.577a2.364,2.364,0,0,0-1.7.61,5.037,5.037,0,0,0-1.153,2.1L160.189,68.8c-.61,1.9-1.017,3.188-1.221,3.934a8.29,8.29,0,0,0-.136,2.238H147.776a10.279,10.279,0,0,0,1.424-2.238c.339-.746.814-2.035,1.492-3.934l7.122-20.959c.61-1.9,1.017-3.188,1.221-3.934a8.29,8.29,0,0,0,.136-2.238l10.174-.068Zm-15.872,8.682-1.56,4.68h-8l-3.866,11.463c-.339,1.085-.61,1.831-.678,2.238a1.662,1.662,0,0,0,.068,1.017c.2.475.95.678,2.1.678h2.577a7.255,7.255,0,0,0,4.273-1.289l-2.781,5.969H135.567a12.819,12.819,0,0,1-4-.407,3.163,3.163,0,0,1-1.7-1.56,4.946,4.946,0,0,1-.339-2.645,32.224,32.224,0,0,1,1.492-5.223l3.459-10.174h-2.917l1.56-4.68h2.917l1.7-5.087,9.632-.543-1.9,5.63,8-.068ZM118.339,60.388l.882-2.645A5.462,5.462,0,0,0,119.7,55.5c-.136-.339-.543-.475-1.289-.475h-3.052a3.36,3.36,0,0,0-1.017.068,1.7,1.7,0,0,0-.543.339,7.989,7.989,0,0,0-1.221,2.374l-.882,2.645,6.647-.068Zm7.8,4.68H110.132l-.678,2.035a4.058,4.058,0,0,0-.339,2.645c.2.407.95.61,2.17.61H119.9a8.447,8.447,0,0,0,4.544-1.153L121.8,75.039H104.5a12.108,12.108,0,0,1-3.256-.339,2.561,2.561,0,0,1-1.56-1.357c-.678-1.357-.543-3.527.407-6.579l2.713-8c1.9-5.765,5.087-8.546,9.5-8.343H124.24a9.389,9.389,0,0,1,3.324.407,2.579,2.579,0,0,1,1.424,1.492,4.956,4.956,0,0,1,.271,2.51,17.337,17.337,0,0,1-.95,3.866Zm-41.1-14.786-.407,2.51A8.869,8.869,0,0,1,86.6,50.825a4.636,4.636,0,0,1,2.306-.543h7.122a5.289,5.289,0,0,1,2.577.475,3.513,3.513,0,0,1,1.357,1.7,5.419,5.419,0,0,1,.271,2.577,15.271,15.271,0,0,1-.814,3.459L95.888,68.8c-.61,1.9-1.017,3.188-1.221,3.934a8.291,8.291,0,0,0-.136,2.238H83.475A10.276,10.276,0,0,0,84.9,72.733c.339-.746.814-2.1,1.492-3.934l3.663-10.717a6.5,6.5,0,0,0,.475-2.51q-.2-.61-1.424-.61H86.121a2.112,2.112,0,0,0-1.492.543,5.237,5.237,0,0,0-1.017,1.9L79.745,68.8c-.61,1.9-1.017,3.188-1.221,3.934a8.291,8.291,0,0,0-.136,2.238H67.4a10.276,10.276,0,0,0,1.424-2.238c.339-.746.814-2.035,1.492-3.934l4.137-12.277c.61-1.9,1.017-3.188,1.221-3.934a6.239,6.239,0,0,0,.136-2.238l9.225-.068Z" transform="translate(-17.447 -11.029)" fill="#fff"/>
    <g id="Group_163498" data-name="Group 163498" transform="translate(47.986 74.727)">
      <path id="Path_95944" data-name="Path 95944" d="M67.484,116.732v-8.479H64.5V107.1h7.122v1.153H68.638v8.479Z" transform="translate(-64.5 -106.829)" fill="#fff"/>
      <path id="Path_95945" data-name="Path 95945" d="M78.884,115.684l1.153.136a3.065,3.065,0,0,1-1.017,1.628,2.778,2.778,0,0,1-1.9.61,3.118,3.118,0,0,1-2.306-.95A3.859,3.859,0,0,1,74,114.463a3.741,3.741,0,0,1,.882-2.713,2.967,2.967,0,0,1,2.238-.95,2.926,2.926,0,0,1,2.17.95,3.859,3.859,0,0,1,.814,2.645v.339H75.221a3.2,3.2,0,0,0,.61,1.764,1.708,1.708,0,0,0,1.357.61,1.666,1.666,0,0,0,1.017-.339A3.312,3.312,0,0,0,78.884,115.684Zm-3.663-1.9h3.663a2.611,2.611,0,0,0-.407-1.289,1.583,1.583,0,0,0-1.357-.678,1.737,1.737,0,0,0-1.289.543A1.869,1.869,0,0,0,75.221,113.784Z" transform="translate(-67.556 -108.019)" fill="#fff"/>
      <path id="Path_95946" data-name="Path 95946" d="M88.98,115.344l1.085.136a3.006,3.006,0,0,1-.95,1.9,2.455,2.455,0,0,1-1.831.678,2.82,2.82,0,0,1-2.17-.95,3.859,3.859,0,0,1-.814-2.645,5.672,5.672,0,0,1,.339-1.967,2.546,2.546,0,0,1,1.085-1.289,3.151,3.151,0,0,1,1.56-.407,3.023,3.023,0,0,1,1.764.543,2.751,2.751,0,0,1,.882,1.628l-1.085.2a2.338,2.338,0,0,0-.543-1.085,1.621,1.621,0,0,0-.95-.339,1.708,1.708,0,0,0-1.357.61,3.177,3.177,0,0,0-.543,2.035,3.214,3.214,0,0,0,.475,2.035,1.575,1.575,0,0,0,1.289.61,1.54,1.54,0,0,0,1.085-.407A1.622,1.622,0,0,0,88.98,115.344Z" transform="translate(-70.87 -108.019)" fill="#fff"/>
      <path id="Path_95947" data-name="Path 95947" d="M94.2,116.732V107.1h1.085v3.459a2.507,2.507,0,0,1,1.967-.95,2.752,2.752,0,0,1,1.289.271,1.444,1.444,0,0,1,.746.814,4.553,4.553,0,0,1,.2,1.56v4.409H98.405v-4.409a2.1,2.1,0,0,0-.339-1.289,1.28,1.28,0,0,0-1.017-.407,1.7,1.7,0,0,0-.95.271,1.658,1.658,0,0,0-.61.746,3.419,3.419,0,0,0-.2,1.289v3.8H94.2Z" transform="translate(-74.055 -106.829)" fill="#fff"/>
      <path id="Path_95948" data-name="Path 95948" d="M104.6,117.922v-6.986h1.017v1.017a2.337,2.337,0,0,1,2.1-1.153,2.811,2.811,0,0,1,1.085.2,1.365,1.365,0,0,1,.746.61,3.407,3.407,0,0,1,.339.882,4.854,4.854,0,0,1,.068,1.153v4.273h-1.085v-4.273a4.251,4.251,0,0,0-.136-1.085.941.941,0,0,0-.475-.543,1.367,1.367,0,0,0-.746-.2,1.635,1.635,0,0,0-1.221.475,2.562,2.562,0,0,0-.543,1.831v3.8Z" transform="translate(-77.401 -108.019)" fill="#fff"/>
      <path id="Path_95949" data-name="Path 95949" d="M114.4,114.395a3.648,3.648,0,0,1,1.017-2.849,2.709,2.709,0,0,1,2.035-.746,3.075,3.075,0,0,1,2.238.95,3.813,3.813,0,0,1,.882,2.577,4.449,4.449,0,0,1-.407,2.1,3.717,3.717,0,0,1-1.085,1.221,3.151,3.151,0,0,1-1.56.407,2.967,2.967,0,0,1-2.238-.95A3.636,3.636,0,0,1,114.4,114.395Zm1.085,0a3.46,3.46,0,0,0,.543,2.035,1.7,1.7,0,0,0,2.713,0,3.46,3.46,0,0,0,.543-2.035,3.234,3.234,0,0,0-.543-1.967,1.7,1.7,0,0,0-2.713,0A3.1,3.1,0,0,0,115.485,114.395Z" transform="translate(-80.554 -108.019)" fill="#fff"/>
      <path id="Path_95950" data-name="Path 95950" d="M125.3,116.732V107.1h1.085v9.632Z" transform="translate(-84.061 -106.829)" fill="#fff"/>
      <path id="Path_95951" data-name="Path 95951" d="M128.9,114.395a3.648,3.648,0,0,1,1.017-2.849,2.709,2.709,0,0,1,2.035-.746,3.076,3.076,0,0,1,2.238.95,3.814,3.814,0,0,1,.882,2.577,4.449,4.449,0,0,1-.407,2.1,3.717,3.717,0,0,1-1.085,1.221,3.151,3.151,0,0,1-1.56.407,2.967,2.967,0,0,1-2.238-.95A3.636,3.636,0,0,1,128.9,114.395Zm1.085,0a3.46,3.46,0,0,0,.543,2.035,1.7,1.7,0,0,0,2.713,0,3.46,3.46,0,0,0,.543-2.035,3.234,3.234,0,0,0-.543-1.967,1.7,1.7,0,0,0-2.713,0A3.1,3.1,0,0,0,129.985,114.395Z" transform="translate(-85.219 -108.019)" fill="#fff"/>
      <path id="Path_95952" data-name="Path 95952" d="M139.4,118.432l1.085.2a1.142,1.142,0,0,0,.407.746,1.94,1.94,0,0,0,1.153.339,2.169,2.169,0,0,0,1.221-.339,1.485,1.485,0,0,0,.543-.95,7.878,7.878,0,0,0,.068-1.492,2.187,2.187,0,0,1-1.831.882,2.455,2.455,0,0,1-2.1-1.017,4.233,4.233,0,0,1-.746-2.51,5.178,5.178,0,0,1,.339-1.831,2.429,2.429,0,0,1,1.017-1.289,2.311,2.311,0,0,1,1.492-.475,2.266,2.266,0,0,1,1.9,1.017V110.9h1.017v6.037a6.087,6.087,0,0,1-.339,2.306,2.251,2.251,0,0,1-1.017,1.085,3.3,3.3,0,0,1-1.7.407,3.157,3.157,0,0,1-1.9-.543A2.089,2.089,0,0,1,139.4,118.432Zm.95-4.138a3.1,3.1,0,0,0,.543,1.967,1.666,1.666,0,0,0,2.577,0,3.1,3.1,0,0,0,.543-1.967,2.883,2.883,0,0,0-.543-1.9,1.747,1.747,0,0,0-1.289-.678,1.777,1.777,0,0,0-1.289.61A2.733,2.733,0,0,0,140.353,114.295Z" transform="translate(-88.533 -107.987)" fill="#fff"/>
      <path id="Path_95953" data-name="Path 95953" d="M149.778,120.664l-.136-1.085a3.44,3.44,0,0,0,.61.136,1.355,1.355,0,0,0,.61-.136.818.818,0,0,0,.339-.339,4.73,4.73,0,0,0,.339-.882c0-.068.068-.136.068-.271L149.1,111.1h1.221l1.357,4a11.408,11.408,0,0,1,.475,1.628,10.483,10.483,0,0,1,.475-1.56l1.424-4.07h1.085l-2.51,7.054c-.271.746-.475,1.289-.61,1.56a2.339,2.339,0,0,1-.678.882,1.363,1.363,0,0,1-.882.271A6.273,6.273,0,0,1,149.778,120.664Z" transform="translate(-91.718 -108.116)" fill="#fff"/>
      <path id="Path_95954" data-name="Path 95954" d="M164.9,116.732V107.1h3.12a9.74,9.74,0,0,1,1.628.136,3.2,3.2,0,0,1,1.357.678,4.042,4.042,0,0,1,1.085,1.628,7.861,7.861,0,0,1,.339,2.306,6,6,0,0,1-.271,1.967,4.522,4.522,0,0,1-.61,1.424,3.475,3.475,0,0,1-.814.882,4.023,4.023,0,0,1-1.085.475,4.623,4.623,0,0,1-1.424.136Zm1.221-1.153h1.9a3.963,3.963,0,0,0,1.424-.2,2.345,2.345,0,0,0,.814-.475,3.4,3.4,0,0,0,.678-1.221,7.429,7.429,0,0,0,.271-1.831,4.333,4.333,0,0,0-.475-2.306,2.513,2.513,0,0,0-1.153-1.085,4.3,4.3,0,0,0-1.56-.2h-1.9Z" transform="translate(-96.801 -106.829)" fill="#fff"/>
      <path id="Path_95955" data-name="Path 95955" d="M182.484,115.684l1.153.136a3.065,3.065,0,0,1-1.017,1.628,3.169,3.169,0,0,1-1.9.61,3.118,3.118,0,0,1-2.306-.95,3.859,3.859,0,0,1-.814-2.645,3.741,3.741,0,0,1,.882-2.713,2.967,2.967,0,0,1,2.238-.95,2.926,2.926,0,0,1,2.17.95,3.859,3.859,0,0,1,.814,2.645v.339h-4.884a3.2,3.2,0,0,0,.61,1.764,1.708,1.708,0,0,0,1.357.61,1.666,1.666,0,0,0,1.017-.339A3.312,3.312,0,0,0,182.484,115.684Zm-3.663-1.9h3.663a2.611,2.611,0,0,0-.407-1.289,1.583,1.583,0,0,0-1.357-.678,1.737,1.737,0,0,0-1.289.543A1.665,1.665,0,0,0,178.821,113.784Z" transform="translate(-100.887 -108.019)" fill="#fff"/>
      <path id="Path_95956" data-name="Path 95956" d="M188.5,116.732V107.1h1.085v9.632Z" transform="translate(-104.393 -106.829)" fill="#fff"/>
      <path id="Path_95957" data-name="Path 95957" d="M192.7,108.457V107.1h1.085v1.357Zm0,8.275v-6.986h1.085v6.986Z" transform="translate(-105.745 -106.829)" fill="#fff"/>
      <path id="Path_95958" data-name="Path 95958" d="M198.31,117.954l-2.51-6.986h1.153l1.424,4.138.407,1.424a9.227,9.227,0,0,1,.407-1.357l1.424-4.273h1.153l-2.51,6.986h-.95Z" transform="translate(-106.742 -108.051)" fill="#fff"/>
      <path id="Path_95959" data-name="Path 95959" d="M210.384,115.684l1.153.136a3.065,3.065,0,0,1-1.017,1.628,3.169,3.169,0,0,1-1.9.61,3.118,3.118,0,0,1-2.306-.95,3.859,3.859,0,0,1-.814-2.645,3.741,3.741,0,0,1,.882-2.713,2.967,2.967,0,0,1,2.238-.95,2.926,2.926,0,0,1,2.17.95,3.859,3.859,0,0,1,.814,2.645v.339h-4.884a3.2,3.2,0,0,0,.61,1.764,1.708,1.708,0,0,0,1.357.61,1.666,1.666,0,0,0,1.017-.339A2.483,2.483,0,0,0,210.384,115.684Zm-3.663-1.9h3.663a2.611,2.611,0,0,0-.407-1.289,1.583,1.583,0,0,0-1.357-.678,1.737,1.737,0,0,0-1.289.543A2.143,2.143,0,0,0,206.721,113.784Z" transform="translate(-109.863 -108.019)" fill="#fff"/>
      <path id="Path_95960" data-name="Path 95960" d="M216.4,117.954v-6.986h1.017v1.085a3.1,3.1,0,0,1,.678-.95,1.367,1.367,0,0,1,.746-.2,1.99,1.99,0,0,1,1.153.407l-.407,1.085a1.3,1.3,0,0,0-.814-.271,1.146,1.146,0,0,0-.678.2.977.977,0,0,0-.407.678,4.374,4.374,0,0,0-.2,1.357v3.663H216.4Z" transform="translate(-113.369 -108.051)" fill="#fff"/>
      <path id="Path_95961" data-name="Path 95961" d="M226.984,115.684l1.153.136a3.065,3.065,0,0,1-1.017,1.628,3.169,3.169,0,0,1-1.9.61,3.118,3.118,0,0,1-2.306-.95,3.859,3.859,0,0,1-.814-2.645,3.741,3.741,0,0,1,.882-2.713,2.967,2.967,0,0,1,2.238-.95,2.926,2.926,0,0,1,2.171.95,3.859,3.859,0,0,1,.814,2.645v.339h-4.884a3.2,3.2,0,0,0,.61,1.764,1.708,1.708,0,0,0,1.357.61,1.666,1.666,0,0,0,1.017-.339A3.312,3.312,0,0,0,226.984,115.684Zm-3.663-1.9h3.663a2.611,2.611,0,0,0-.407-1.289,1.583,1.583,0,0,0-1.357-.678,1.737,1.737,0,0,0-1.289.543A1.869,1.869,0,0,0,223.321,113.784Z" transform="translate(-115.203 -108.019)" fill="#fff"/>
      <path id="Path_95962" data-name="Path 95962" d="M237.112,116.7v-.882a2,2,0,0,1-1.831,1.017,2.129,2.129,0,0,1-1.424-.475,3.9,3.9,0,0,1-1.017-1.289,4.139,4.139,0,0,1-.339-1.9,5.569,5.569,0,0,1,.339-1.9,2.686,2.686,0,0,1,.95-1.289,2.782,2.782,0,0,1,1.492-.475,1.99,1.99,0,0,1,1.085.271,2.419,2.419,0,0,1,.746.678V107H238.2v9.632h-1.085Zm-3.527-3.459a3.094,3.094,0,0,0,.543,1.967,1.619,1.619,0,0,0,1.221.678,1.541,1.541,0,0,0,1.221-.61,3.016,3.016,0,0,0,.543-1.9,3.544,3.544,0,0,0-.543-2.1,1.469,1.469,0,0,0-1.289-.678,1.541,1.541,0,0,0-1.221.61A3.727,3.727,0,0,0,233.585,113.24Z" transform="translate(-118.549 -106.797)" fill="#fff"/>
      <path id="Path_95963" data-name="Path 95963" d="M243.736,120.657V119.3h1.289v1.357a2.322,2.322,0,0,1-.271,1.221,1.389,1.389,0,0,1-.814.678l-.339-.475a1.829,1.829,0,0,0,.543-.475,1.7,1.7,0,0,0,.2-.882h-.61Z" transform="translate(-122.12 -110.754)" fill="#fff"/>
      <path id="Path_95964" data-name="Path 95964" d="M253.4,113.483l1.153-.136a2.564,2.564,0,0,0,.407,1.153,2.449,2.449,0,0,0,.882.746,3.036,3.036,0,0,0,1.357.271,3.286,3.286,0,0,0,1.221-.2,1.853,1.853,0,0,0,.814-.61,1.357,1.357,0,0,0,0-1.628,1.55,1.55,0,0,0-.814-.543c-.271-.068-.746-.271-1.628-.475a7.263,7.263,0,0,1-1.764-.61,3,3,0,0,1-.95-.882,2.342,2.342,0,0,1-.339-1.221,2.446,2.446,0,0,1,.407-1.357,2.315,2.315,0,0,1,1.153-.95,4.1,4.1,0,0,1,1.628-.339,4.537,4.537,0,0,1,1.764.339,2.13,2.13,0,0,1,1.153,1.017,3.854,3.854,0,0,1,.475,1.492l-1.153.068a1.963,1.963,0,0,0-.61-1.357,2.153,2.153,0,0,0-1.56-.475,2.389,2.389,0,0,0-1.56.407,1.22,1.22,0,0,0-.475,1.017,1.428,1.428,0,0,0,.339.882,4.173,4.173,0,0,0,1.831.678,9.354,9.354,0,0,1,2.035.61,3.328,3.328,0,0,1,1.153.95,2.291,2.291,0,0,1,.407,1.357,2.508,2.508,0,0,1-.407,1.424A2.736,2.736,0,0,1,259.1,116.2a3.755,3.755,0,0,1-1.763.407,4.53,4.53,0,0,1-2.035-.407,2.673,2.673,0,0,1-1.289-1.153A1.754,1.754,0,0,1,253.4,113.483Z" transform="translate(-125.273 -106.7)" fill="#fff"/>
      <path id="Path_95965" data-name="Path 95965" d="M266.2,108.457V107.1h1.085v1.357Zm0,8.275v-6.986h1.085v6.986Z" transform="translate(-129.391 -106.829)" fill="#fff"/>
      <path id="Path_95966" data-name="Path 95966" d="M270.3,117.922v-6.986h1.017v1.017a2.337,2.337,0,0,1,2.1-1.153,2.811,2.811,0,0,1,1.085.2,1.365,1.365,0,0,1,.746.61,3.4,3.4,0,0,1,.339.882,4.855,4.855,0,0,1,.068,1.153v4.273h-1.085v-4.273a4.252,4.252,0,0,0-.136-1.085.941.941,0,0,0-.475-.543,1.367,1.367,0,0,0-.746-.2,1.635,1.635,0,0,0-1.221.475,2.562,2.562,0,0,0-.543,1.831v3.8Z" transform="translate(-130.71 -108.019)" fill="#fff"/>
      <path id="Path_95967" data-name="Path 95967" d="M284.78,115.344l1.085.136a3.006,3.006,0,0,1-.95,1.9,2.455,2.455,0,0,1-1.831.678,2.821,2.821,0,0,1-2.171-.95,3.859,3.859,0,0,1-.814-2.645,5.67,5.67,0,0,1,.339-1.967,2.546,2.546,0,0,1,1.085-1.289,3.151,3.151,0,0,1,1.56-.407,3.023,3.023,0,0,1,1.763.543,2.564,2.564,0,0,1,.882,1.628l-1.085.2a2.339,2.339,0,0,0-.543-1.085,1.621,1.621,0,0,0-.95-.339,1.708,1.708,0,0,0-1.357.61,3.178,3.178,0,0,0-.543,2.035,3.214,3.214,0,0,0,.475,2.035,1.575,1.575,0,0,0,1.289.61,1.54,1.54,0,0,0,1.085-.407A1.622,1.622,0,0,0,284.78,115.344Z" transform="translate(-133.863 -108.019)" fill="#fff"/>
      <path id="Path_95968" data-name="Path 95968" d="M294.284,115.684l1.153.136a3.065,3.065,0,0,1-1.017,1.628,3.169,3.169,0,0,1-1.9.61,3.118,3.118,0,0,1-2.306-.95,3.859,3.859,0,0,1-.814-2.645,3.741,3.741,0,0,1,.882-2.713,2.967,2.967,0,0,1,2.238-.95,2.926,2.926,0,0,1,2.171.95,3.859,3.859,0,0,1,.814,2.645v.339h-4.884a3.2,3.2,0,0,0,.61,1.764,1.708,1.708,0,0,0,1.357.61,1.666,1.666,0,0,0,1.017-.339A2.483,2.483,0,0,0,294.284,115.684Zm-3.663-1.9h3.663a2.611,2.611,0,0,0-.407-1.289,1.583,1.583,0,0,0-1.357-.678,1.737,1.737,0,0,0-1.289.543A2.143,2.143,0,0,0,290.621,113.784Z" transform="translate(-136.855 -108.019)" fill="#fff"/>
      <path id="Path_95969" data-name="Path 95969" d="M310.869,115.643V116.8H304.9a3.406,3.406,0,0,1,.136-.814,4.221,4.221,0,0,1,.746-1.289,13.956,13.956,0,0,1,1.424-1.424,12.548,12.548,0,0,0,1.967-2.035,2.5,2.5,0,0,0,.543-1.424,1.4,1.4,0,0,0-.475-1.153,1.634,1.634,0,0,0-1.221-.475,1.737,1.737,0,0,0-1.289.543,1.911,1.911,0,0,0-.475,1.424l-1.153-.136a2.846,2.846,0,0,1,.882-2.035,2.957,2.957,0,0,1,2.035-.678,2.566,2.566,0,0,1,2.781,2.645,3.444,3.444,0,0,1-.2,1.153,4.679,4.679,0,0,1-.746,1.153,19.357,19.357,0,0,1-1.7,1.7c-.678.61-1.085,1.017-1.289,1.221a3.73,3.73,0,0,0-.475.61h4.477Z" transform="translate(-141.842 -106.893)" fill="#fff"/>
      <path id="Path_95970" data-name="Path 95970" d="M315.4,111.984a9.465,9.465,0,0,1,.339-2.713,3.837,3.837,0,0,1,.95-1.628,2.162,2.162,0,0,1,1.628-.543,2.805,2.805,0,0,1,1.289.339,2.2,2.2,0,0,1,.882.882,6.943,6.943,0,0,1,.543,1.424,9.658,9.658,0,0,1,.2,2.238,9.463,9.463,0,0,1-.339,2.713,3.837,3.837,0,0,1-.95,1.628,2.162,2.162,0,0,1-1.628.543,2.335,2.335,0,0,1-2.035-1.017A6.744,6.744,0,0,1,315.4,111.984Zm1.153,0a6.169,6.169,0,0,0,.543,3.12,1.427,1.427,0,0,0,2.577,0,6.352,6.352,0,0,0,.543-3.12,6.169,6.169,0,0,0-.543-3.12,1.548,1.548,0,0,0-1.289-.814,1.291,1.291,0,0,0-1.221.678A6.237,6.237,0,0,0,316.553,111.984Z" transform="translate(-145.22 -106.829)" fill="#fff"/>
      <path id="Path_95971" data-name="Path 95971" d="M325.8,111.984a9.462,9.462,0,0,1,.339-2.713,3.837,3.837,0,0,1,.95-1.628,2.162,2.162,0,0,1,1.628-.543,2.805,2.805,0,0,1,1.289.339,2.2,2.2,0,0,1,.882.882,6.934,6.934,0,0,1,.543,1.424,9.657,9.657,0,0,1,.2,2.238,9.464,9.464,0,0,1-.339,2.713,3.837,3.837,0,0,1-.95,1.628,2.162,2.162,0,0,1-1.628.543,2.335,2.335,0,0,1-2.035-1.017A6.243,6.243,0,0,1,325.8,111.984Zm1.153,0a6.169,6.169,0,0,0,.543,3.12,1.427,1.427,0,0,0,2.577,0,6.351,6.351,0,0,0,.543-3.12,6.168,6.168,0,0,0-.543-3.12,1.548,1.548,0,0,0-1.289-.814,1.292,1.292,0,0,0-1.221.678A6.237,6.237,0,0,0,326.953,111.984Z" transform="translate(-148.565 -106.829)" fill="#fff"/>
      <path id="Path_95972" data-name="Path 95972" d="M340.724,116.7h-1.085v-7.529a5.008,5.008,0,0,1-1.085.814,6.42,6.42,0,0,1-1.153.61v-1.153a7.049,7.049,0,0,0,1.628-1.153A5.234,5.234,0,0,0,340.045,107h.746v9.7Z" transform="translate(-152.297 -106.797)" fill="#fff"/>
    </g>
  </g>
</svg>
